<svg id="Layer_1" data-name="Layer 1" xmlns="http://www.w3.org/2000/svg" viewBox="0 0 514.68 98.94"><defs><style>.cls-1{fill:#465da6;}.cls-2{fill:#fff;}</style></defs><title>InfomotorLogoLong</title><polygon class="cls-1" points="80.91 12.81 80.91 0 0 0 0 12.81 12.23 12.81 12.23 86.13 0 86.13 0 98.94 80.91 98.94 80.91 86.13 68.68 86.13 68.68 12.81 80.91 12.81"/><path class="cls-2" d="M62.92,75a22.23,22.23,0,0,0,0-6.41H57.6l-2.48-6,3.74-3.76a22.13,22.13,0,0,0-4.52-4.53L50.58,58l-6-2.48V50.22a22.18,22.18,0,0,0-6.4,0v5.32l-6,2.48-3.76-3.74a21.82,21.82,0,0,0-4.52,4.52l3.75,3.76-2.49,6H19.81a22.23,22.23,0,0,0,0,6.41h5.32l2.48,6-3.74,3.76a21.82,21.82,0,0,0,4.52,4.52l3.76-3.74,6,2.49v5.31a22.18,22.18,0,0,0,6.4,0V88l6-2.49,3.76,3.75a22.13,22.13,0,0,0,4.52-4.53L55.12,81l2.48-6h5.32ZM41.36,79.09a7.32,7.32,0,1,1,7.32-7.32A7.32,7.32,0,0,1,41.36,79.09Z" transform="translate(-0.91 -1)"/><path class="cls-2" d="M62.49,23.2A22.23,22.23,0,0,0,60,17.29l-4.91,2-4.6-4.59,2-4.91a22.13,22.13,0,0,0-5.91-2.45l-2,4.91-6.5,0L36,7.41a22.18,22.18,0,0,0-5.91,2.46l2,4.91-4.6,4.6-4.91-2a21.82,21.82,0,0,0-2.44,5.92l4.91,2v6.5l-4.91,2.05a22.23,22.23,0,0,0,2.46,5.91l4.91-2,4.6,4.59-2,4.91a21.82,21.82,0,0,0,5.92,2.44l2-4.9,6.51,0,2,4.9A22.18,22.18,0,0,0,52.6,47.2l-2-4.9,4.59-4.61,4.92,2a22.13,22.13,0,0,0,2.43-5.92l-4.9-2,0-6.5ZM44.18,35.29a7.32,7.32,0,1,1,3.95-9.58A7.32,7.32,0,0,1,44.18,35.29Z" transform="translate(-0.91 -1)"/><path class="cls-1" d="M112.07,19.61v66.7H96.48V19.61h15.59Z" transform="translate(-0.91 -1)"/><path class="cls-1" d="M167.68,86.31H153.12V58.61a39.72,39.72,0,0,0-.39-6.89,5.58,5.58,0,0,0-1.91-3.15A5.66,5.66,0,0,0,147,47.27q-7.67,0-7.67,11.34V86.31H124.78V37h13.54v8.36q3.37-6,6.65-7.67A15.08,15.08,0,0,1,152,35.94q7,0,11.34,3.79t4.3,14.88V86.31Z" transform="translate(-0.91 -1)"/><path class="cls-1" d="M194.9,48.3v38H180.73v-38H175V37h5.72a46.36,46.36,0,0,1,1.1-11.12q1-3.49,5.16-6.21t11.29-2.71a49,49,0,0,1,6.74.54V28.7q-3.13-.24-5.18-0.24-3,0-4,1.56a10,10,0,0,0-1,5.08V37h8.94V48.3H194.9Z" transform="translate(-0.91 -1)"/><path class="cls-1" d="M231.47,35.94q11.28,0,17.6,7.38t6.32,18.47q0,10.95-6.56,18.25t-17.45,7.31q-10.54,0-16.87-7.23t-6.32-18.57A28.7,28.7,0,0,1,211,48.18a23.72,23.72,0,0,1,7.83-8.87Q223.86,35.93,231.47,35.94Zm0.39,9.53a7,7,0,0,0-6.24,3.2q-2.1,3.2-2.09,12.73,0,8.75,2,12.56a6.59,6.59,0,0,0,6.24,3.81,7,7,0,0,0,6-3.25Q240,71.26,240,62.13q0-9.72-2-13.19A6.66,6.66,0,0,0,231.86,45.46Z" transform="translate(-0.91 -1)"/><path class="cls-1" d="M335.09,86.31H320.53V59a50,50,0,0,0-.34-7.5,4.78,4.78,0,0,0-1.78-2.88,6.23,6.23,0,0,0-4-1.15,8.64,8.64,0,0,0-4.89,1.71Q307,50.89,307,59V86.31H292.48V59a33,33,0,0,0-.54-7.65,5.33,5.33,0,0,0-2-2.81,6.32,6.32,0,0,0-3.79-1.08,6.63,6.63,0,0,0-5.59,2.37Q278.7,52.21,278.7,59V86.31H264.58V37h13.68v7.52q3.48-8.55,13.9-8.55,9.45,0,13.66,8.55,4.1-8.55,14.32-8.55a16.72,16.72,0,0,1,8.41,2,11.77,11.77,0,0,1,5,5.23q1.51,3.23,1.52,11.09V86.31Z" transform="translate(-0.91 -1)"/><path class="cls-1" d="M367.51,35.94q11.28,0,17.6,7.38t6.32,18.47q0,10.95-6.57,18.25t-17.45,7.31q-10.54,0-16.87-7.23t-6.32-18.57a28.7,28.7,0,0,1,2.86-13.36,23.71,23.71,0,0,1,7.83-8.87Q359.89,35.93,367.51,35.94Zm0.39,9.53a7,7,0,0,0-6.24,3.2q-2.1,3.2-2.09,12.73,0,8.75,2,12.56a6.59,6.59,0,0,0,6.24,3.81,7,7,0,0,0,6-3.25q2.29-3.25,2.29-12.39,0-9.72-2-13.19A6.66,6.66,0,0,0,367.9,45.46Z" transform="translate(-0.91 -1)"/><path class="cls-1" d="M417,48.3V69.16q0,3.91,1.17,5.23t5.5,1.32q2,0,4.62-.2v10.8a62.59,62.59,0,0,1-9.14,1.08q-9.09,0-12.9-3.49t-3.81-12.63v-23h-7.82V37h8.65l1.17-14.56,12.56-1V37h10.6V48.3H417Z" transform="translate(-0.91 -1)"/><path class="cls-1" d="M455.85,35.94q11.28,0,17.6,7.38t6.32,18.47q0,10.95-6.57,18.25t-17.45,7.31q-10.54,0-16.87-7.23t-6.32-18.57a28.71,28.71,0,0,1,2.86-13.36,23.71,23.71,0,0,1,7.83-8.87Q448.24,35.93,455.85,35.94Zm0.39,9.53a7,7,0,0,0-6.24,3.2q-2.1,3.2-2.09,12.73,0,8.75,2,12.56a6.59,6.59,0,0,0,6.24,3.81,7,7,0,0,0,6-3.25q2.29-3.25,2.29-12.39,0-9.72-2-13.19A6.66,6.66,0,0,0,456.25,45.46Z" transform="translate(-0.91 -1)"/><path class="cls-1" d="M503.08,86.31H489V37H502.3v9.19Q505.38,35.89,513,35.89q1.08,0,2.64.15V50.4a14.41,14.41,0,0,0-6.91,1.37,9.9,9.9,0,0,0-4,4.91,24.06,24.06,0,0,0-1.56,9.55V86.31Z" transform="translate(-0.91 -1)"/></svg>