<?xml version="1.0" encoding="utf-8"?>
<!-- Generator: Adobe Illustrator 19.2.0, SVG Export Plug-In . SVG Version: 6.00 Build 0)  -->
<svg version="1.1" id="Layer_1" xmlns="http://www.w3.org/2000/svg" xmlns:xlink="http://www.w3.org/1999/xlink" x="0px" y="0px"
	 viewBox="0 0 423 423" style="enable-background:new 0 0 423 423;" xml:space="preserve">
<style type="text/css">
	.st0{fill:#375CAA;}
	.st1{fill:#FFFFFF;}
</style>
<polygon class="st0" points="384.5,54.8 384.5,0 38.6,0 38.6,54.8 90.8,54.8 90.8,368.3 38.6,368.3 38.6,423 384.5,423 384.5,368.3 
	332.2,368.3 332.2,54.8 "/>
<g>
	<path class="st1" d="M303.7,316.3c0.7-4.5,1-9,1-13.7s-0.3-9.2-1-13.7l-22.7,0l-10.6-25.7l16-16.1c-5.5-7.4-12-13.9-19.3-19.4
		l-16.1,16l-25.7-10.6l0-22.7c-4.5-0.7-9-1-13.7-1c-4.7,0-9.2,0.3-13.7,1l0,22.7l-25.7,10.6l-16.1-16c-7.4,5.5-13.9,12-19.3,19.3
		l16,16.1l-10.6,25.7l-22.7,0c-0.7,4.5-1,9-1,13.7s0.3,9.2,1,13.7l22.7,0l10.6,25.7l-16,16.1c5.5,7.4,12,13.9,19.3,19.3l16.1-16
		l25.7,10.6l0,22.7c4.5,0.7,9,1,13.7,1c4.6,0,9.2-0.3,13.7-1l0-22.7l25.7-10.6l16.1,16c7.3-5.5,13.9-12,19.3-19.4l-16-16.1
		l10.6-25.7L303.7,316.3z M211.5,333.9c-17.3,0-31.3-14-31.3-31.3c0-17.3,14-31.3,31.3-31.3s31.3,14,31.3,31.3
		C242.8,319.9,228.8,333.9,211.5,333.9z"/>
	<path class="st1" d="M301.9,94.9c-1.1-4.4-2.6-8.7-4.3-13c-1.8-4.3-3.9-8.4-6.2-12.3l-21,8.7l-19.7-19.6l8.6-21
		c-7.9-4.7-16.4-8.2-25.3-10.5l-8.7,21l-27.8,0.1l-8.8-21c-4.4,1.1-8.7,2.6-13,4.3c-4.3,1.8-8.4,3.9-12.3,6.2l8.7,21l-19.7,19.7
		l-21-8.6c-4.7,7.9-8.2,16.4-10.4,25.3l21,8.7l0,27.8l-21,8.8c1.1,4.4,2.6,8.7,4.3,13c1.8,4.3,3.9,8.4,6.2,12.3l21-8.7l19.7,19.6
		l-8.6,21c7.9,4.7,16.4,8.2,25.3,10.4l8.7-21l27.8-0.1l8.8,21c4.4-1.1,8.7-2.6,13-4.3c4.3-1.8,8.4-3.8,12.2-6.2l-8.7-21l19.6-19.7
		l21,8.6c4.7-7.9,8.2-16.4,10.4-25.3l-21-8.7l-0.1-27.8L301.9,94.9z M223.6,146.6c-16,6.6-34.3-0.9-40.9-16.9
		c-6.6-16,0.9-34.3,16.9-40.9s34.3,0.9,40.9,16.9C247.1,121.7,239.5,140,223.6,146.6z"/>
</g>
</svg>
