<svg id="Layer_1" data-name="Layer 1" xmlns="http://www.w3.org/2000/svg" viewBox="0 0 1119.52 423.03"><defs><style>.cls-1{fill:#385daa;}.cls-2{fill:#fff;}</style></defs><title>InfomotorLogoBig</title><polygon class="cls-1" points="345.93 54.77 345.93 0 0 0 0 54.77 52.29 54.77 52.29 368.26 0 368.26 0 423.03 345.93 423.03 345.93 368.26 293.64 368.26 293.64 54.77 345.93 54.77"/><path class="cls-2" d="M265.13,316.29a95,95,0,0,0,0-27.39l-22.73,0-10.61-25.68,16-16.07a94.64,94.64,0,0,0-19.32-19.37l-16.09,16-25.71-10.61,0-22.73a94.85,94.85,0,0,0-27.36,0l0,22.73-25.71,10.61-16.07-16a93.28,93.28,0,0,0-19.34,19.34l16,16.09-10.64,25.65-22.73,0a95,95,0,0,0,0,27.39l22.73,0L114.15,342l-16,16.07a93.28,93.28,0,0,0,19.34,19.34l16.07-16L159.26,372l0,22.71a94.85,94.85,0,0,0,27.36,0l0-22.71,25.71-10.64,16.09,16a94.64,94.64,0,0,0,19.32-19.37l-16-16.07,10.61-25.68ZM173,333.91a31.31,31.31,0,1,1,31.31-31.31A31.31,31.31,0,0,1,173,333.91Z"/><path class="cls-2" d="M263.31,94.94a95,95,0,0,0-10.53-25.29l-21,8.71L212.12,58.73l8.6-21a94.64,94.64,0,0,0-25.28-10.46l-8.69,21-27.81.09-8.77-21a94.85,94.85,0,0,0-25.26,10.52l8.71,21L114,78.59,93,70A93.28,93.28,0,0,0,82.56,95.29l21,8.69,0,27.77-21,8.77A95,95,0,0,0,93.15,165.8l21-8.71,19.67,19.63-8.6,21a93.28,93.28,0,0,0,25.29,10.42l8.68-21L187,187.1l8.75,21A94.85,94.85,0,0,0,221,197.53l-8.7-21L232,156.86l21,8.62a94.64,94.64,0,0,0,10.38-25.31l-21-8.68-0.08-27.79ZM185,146.63a31.31,31.31,0,1,1,16.87-40.94A31.31,31.31,0,0,1,185,146.63Z"/><path class="cls-1" d="M451,11.71v190H406.61v-190H451Z"/><path class="cls-1" d="M609.36,201.66H567.89v-78.9q0-14.33-1.11-19.62a15.88,15.88,0,0,0-5.43-9,16.12,16.12,0,0,0-10.85-3.69q-21.85,0-21.85,32.29v78.9H487.18V61.11h38.55v23.8q9.6-17,18.93-21.85a42.94,42.94,0,0,1,20.18-4.87q20,0,32.29,10.78t12.25,42.37v90.31Z"/><path class="cls-1" d="M686.87,93.4V201.66H646.52V93.4H630.24V61.11h16.28q0.28-21.71,3.13-31.66t14.68-17.67q11.83-7.72,32.15-7.72a139.45,139.45,0,0,1,19.2,1.53v32q-8.91-.7-14.75-0.7-8.49,0-11.27,4.45t-2.78,14.47v5.29h25.47V93.4H686.87Z"/><path class="cls-1" d="M791,58.19q32.11,0,50.12,21t18,52.6q0,31.17-18.7,52t-49.7,20.8q-30,0-48-20.6t-18-52.88q0-22.4,8.13-38.06a67.54,67.54,0,0,1,22.31-25.26Q769.35,58.19,791,58.19Zm1.11,27.14q-11.79,0-17.76,9.12t-6,36.25q0,24.91,5.69,35.76t17.76,10.85q10.54,0,17.07-9.25t6.52-35.28q0-27.69-5.76-37.57T792.15,85.32Z"/><path class="cls-1" d="M871.54,114.27h66.52v30.2H871.54v-30.2Z"/><path class="cls-1" d="M605.47,418.78H564V341q0-16.42-1-21.36a13.62,13.62,0,0,0-5.08-8.21q-4.11-3.27-11.34-3.27-6.82,0-13.92,4.87t-7.1,28v77.79H484.12V341q0-16.84-1.53-21.78a15.19,15.19,0,0,0-5.77-8A18,18,0,0,0,466,308.15q-10.72,0-15.93,6.75T444.87,341v77.79H404.66V278.23h39v21.43q9.9-24.35,39.59-24.35,26.9,0,38.89,24.35,11.69-24.35,40.78-24.35,13.92,0,23.94,5.71t14.34,14.89q4.31,9.18,4.32,31.59v91.29Z"/><path class="cls-1" d="M697.8,275.31q32.11,0,50.12,21t18,52.6q0,31.17-18.7,52t-49.7,20.8q-30,0-48-20.6t-18-52.88q0-22.4,8.13-38.06a67.54,67.54,0,0,1,22.31-25.26Q676.11,275.31,697.8,275.31Zm1.11,27.14q-11.79,0-17.76,9.12t-6,36.25q0,24.91,5.69,35.76t17.76,10.85q10.54,0,17.07-9.25t6.52-35.28q0-27.69-5.76-37.57T698.91,302.44Z"/><path class="cls-1" d="M838.84,310.51v59.42q0,11.14,3.32,14.89t15.66,3.76q5.68,0,13.16-.56v30.75q-18.09,3.06-26,3.06-25.88,0-36.74-10t-10.85-36V310.51H775.1V278.23h24.63l3.34-41.47L838.84,234v44.25H869v32.29h-30.2Z"/><path class="cls-1" d="M949.4,275.31q32.11,0,50.12,21t18,52.6q0,31.17-18.7,52t-49.7,20.8q-30,0-48-20.6t-18-52.88q0-22.4,8.13-38.06a67.54,67.54,0,0,1,22.31-25.26Q927.71,275.31,949.4,275.31Zm1.11,27.14q-11.79,0-17.76,9.12t-6,36.25q0,24.91,5.69,35.76t17.76,10.85q10.54,0,17.07-9.25t6.52-35.28q0-27.69-5.76-37.57T950.51,302.44Z"/><path class="cls-1" d="M1083.9,418.78h-40.22V278.23h38v26.16q8.77-29.22,30.34-29.22,3.06,0,7.51.42V316.5q-12.67,0-19.69,3.9t-11.48,14q-4.45,10.09-4.45,27.21v57.19Z"/></svg>